# xmcd
# 
# Track frame offsets:
#     150
#     29475
#     52050
#     87762
#     120187
#     148800
#     164937
# 
# Disc length: 2559
# 
# Revision: 1
# Processed by: cddbd v1.5.2PL0 Copyright (c) Steve Scherf et al.
# Submitted via: fre:ac v1.1beta1pre5
# 
DISCID=6109fd07
DTITLE=秋吉敏子 - Toshiko Akiyoshi Best Silver 89/96
DYEAR=1998
DGENRE=J-Jazz
TTITLE0=Cleopatra's Dream (クレオパトラの夢)
TTITLE1=Summer Time (サマータイム)
TTITLE2=Dig (ディグ)
TTITLE3=孤軍
TTITLE4=When You Wish Upon A Star (星に願いを)
TTITLE5=Tico Tico (ティコ・ティコ)
TTITLE6=Sophisticated Lady (ソフィスティケイテッド・レディー )
EXTD=YEAR: 1998
EXTT0=
EXTT1=
EXTT2=
EXTT3=
EXTT4=
EXTT5=
EXTT6=
PLAYORDER=
